# xmcd
#
# Track frame offsets:
# 150
# 26982
# 48775
# 75035
# 96902
# 119012
# 141255
# 162097
# 187765
# 215832
# 248305
#
# Disc length: 3722 seconds
#
# Revision: 0
# Processed by: cddbd v1.5PL3 Copyright (c) Steve Scherf et al.
# Submitted via: MacMP3 Pro 5.0 (http://mp3.act2.co.jp/)
#
DISCID=880e880b
DTITLE=Eater - Quadraphonic
DYEAR=1900
DGENRE=
TTITLE0=The Time Went Slowly Just For Me
TTITLE1=Talk...
TTITLE2=Kitten
TTITLE3=Sound Craft
TTITLE4=Chair:Green
TTITLE5=Chair:Orange
TTITLE6=Carbon
TTITLE7=Eater
TTITLE8=November
TTITLE9=T.O.E Tazra
TTITLE10=‰OÎ"‚J
EXTD=
EXTT0=
EXTT1=
EXTT2=
EXTT3=
EXTT4=
EXTT5=
EXTT6=
EXTT7=
EXTT8=
EXTT9=
EXTT10=
PLAYORDER=
